<svg xmlns="http://www.w3.org/2000/svg" xmlns:xlink="http://www.w3.org/1999/xlink" version="1.1" x="0px" y="0px" viewBox="-1121.4 1396 49.5 122" style="enable-background:new -1121.4 1396 49.5 97.6;" xml:space="preserve"><path d="M-1072.6,1419.2l-2.9-2.4v-19c0-1-0.8-1.7-1.7-1.7c-1,0-1.7,0.8-1.7,1.7v19l-2.9,2.4c-0.4,0.3-0.6,0.8-0.6,1.4v0.4  c0,0.1,0,0.1,0,0.2v3l-13.1-9.9c-0.6-0.5-1.5-0.5-2.2,0l-13.3,9.9v-3.1c0-0.1,0-0.1,0-0.1v-0.5c0-0.5-0.2-1-0.6-1.4l-2.9-2.4v-19  c0-1-0.8-1.7-1.7-1.7c-1,0-1.7,0.8-1.7,1.7v19l-2.9,2.4c-0.4,0.3-0.6,0.8-0.6,1.4v71.3c0,0.5,0.2,0.9,0.5,1.3  c0.3,0.3,0.8,0.5,1.3,0.5h12.2v-1.6v-0.1v-0.4v-1.5v-3.6v-18c0-1.6,0.8-4.1,1.7-5.3l8.3-10.9c0.5-0.6,1.1-0.6,1.5,0l8.3,10.9  c1,1.3,1.7,3.8,1.7,5.3v18.1v3.6v1.4v0.4v0.1v1.6h12.2c0.5,0,0.9-0.2,1.3-0.5c0.3-0.3,0.5-0.8,0.5-1.3v-71.3  C-1071.9,1420-1072.2,1419.6-1072.6,1419.2z M-1082.4,1490v-21.6c0-2.4-1.1-5.7-2.6-7.6l-8.3-10.9c-0.9-1.2-2.2-1.8-3.6-1.8  c-1.4,0-2.7,0.7-3.6,1.8l-8.3,10.9c-1.4,1.8-2.6,5.1-2.6,7.6v21.6h-6.9v-53.3v-15.2l1.7-1.5l1.7,1.5v6.4c0,0.1,0,0.1,0,0.1  c0.1,0.6,0.4,1.2,1,1.5s1.3,0.2,1.8-0.2l15-11.2l14.9,11.2c0.6,0.4,1.3,0.5,1.8,0.2c0.6-0.3,0.9-0.8,1-1.5c0-0.1,0-0.1,0-0.2v-6.4  l1.7-1.5l1.7,1.5v15.3v53.3L-1082.4,1490L-1082.4,1490z"/><path d="M-1095.1,1425.6c-0.5-0.5-1.1-0.8-1.7-0.8c-0.6,0-1.4,0.3-1.7,0.8l-4,4.6c-0.4,0.4-0.6,1-0.6,1.6v7.5c0,1.3,1.1,2.4,2.4,2.4  h4.3h3.8c1.3,0,2.4-1.1,2.4-2.4v-7.5c0-0.6-0.2-1.1-0.6-1.6L-1095.1,1425.6z M-1092.9,1439.1h-3.8h-4.3v-7.5l4-4.6l4,4.6  L-1092.9,1439.1L-1092.9,1439.1z"/><path d="M-1081.9,1431.5c-0.4-0.5-1.1-0.8-1.7-0.8c-0.6,0-1.4,0.3-1.7,0.8l-2,2.3c-0.4,0.4-0.6,1-0.6,1.6v3.7c0,1.3,1.1,2.4,2.4,2.4  h2.1h1.8c1.3,0,2.4-1.1,2.4-2.4v-3.7c0-0.6-0.2-1.2-0.6-1.6L-1081.9,1431.5z M-1081.8,1439.1h-1.8h-2.1v-3.7l2-2.3l2,2.3  L-1081.8,1439.1L-1081.8,1439.1z"/><path d="M-1108.4,1431.5c-0.5-0.5-1.1-0.8-1.7-0.8c-0.6,0-1.4,0.3-1.7,0.8l-2,2.3c-0.4,0.4-0.6,1-0.6,1.6v3.7c0,1.3,1.1,2.4,2.4,2.4  h2.1h1.8c1.3,0,2.4-1.1,2.4-2.4v-3.7c0-0.6-0.2-1.2-0.6-1.6L-1108.4,1431.5z M-1108.2,1439.1h-1.8h-2.1v-3.7l2-2.3l2,2.3  C-1108.2,1435.4-1108.2,1439.1-1108.2,1439.1z"/><text x="-1121.4" y="1508.6" fill="#000000" font-size="5px" font-weight="bold" font-family="'Helvetica Neue', Helvetica, Arial-Unicode, Arial, Sans-serif">Created by Dreshad Williams</text><text x="-1121.4" y="1513.6" fill="#000000" font-size="5px" font-weight="bold" font-family="'Helvetica Neue', Helvetica, Arial-Unicode, Arial, Sans-serif">from the Noun Project</text></svg>